<svg xmlns="http://www.w3.org/2000/svg" width="23.999" height="23.999" viewBox="0 0 23.999 23.999"><defs><style>.a{fill:#fff;}</style></defs><g transform="translate(0 0.082)"><path class="a" d="M12,24A12,12,0,0,1,3.515,3.515a12,12,0,0,1,16.97,16.97A11.921,11.921,0,0,1,12,24ZM6.652,6A.652.652,0,0,0,6,6.652,11.092,11.092,0,0,0,17.079,17.731a.652.652,0,0,0,.652-.652V14.805a.652.652,0,0,0-.652-.652,7.4,7.4,0,0,1-2.326-.372.633.633,0,0,0-.206-.034.655.655,0,0,0-.46.191l-1.434,1.434a9.932,9.932,0,0,1-4.295-4.295L9.793,9.644a.657.657,0,0,0,.163-.665,7.4,7.4,0,0,1-.372-2.326A.652.652,0,0,0,8.933,6Z" transform="translate(0 -0.082)"/></g></svg>